<svg width="60" height="61" viewBox="0 0 60 61" fill="none" xmlns="http://www.w3.org/2000/svg">
<path d="M30 6.22461C23.5353 6.22461 17.3355 8.79268 12.7643 13.3639C8.19307 17.9351 5.625 24.135 5.625 30.5996V43.0996C5.625 43.1663 5.62833 43.2329 5.635 43.2996V43.4246C5.6275 46.6196 7.14 50.1296 10.5425 51.5496L10.72 51.6246C10.995 51.7346 11.27 51.9246 11.625 52.2496C11.8 52.4096 11.97 52.5796 12.175 52.7821L12.195 52.8021C12.395 53.0021 12.6325 53.2396 12.8875 53.4646C13.3975 53.9221 14.0725 54.4346 14.9625 54.7296C15.8875 55.0346 16.8875 55.0571 17.9825 54.7846C19.79 54.3346 21.1475 52.9046 21.655 51.1496C21.8775 50.3771 21.8775 49.4796 21.875 48.4396V38.2046C21.875 37.4921 21.875 36.8846 21.85 36.3846C21.8339 35.8522 21.7438 35.3247 21.5825 34.8171C21.0075 33.1096 19.6175 31.7596 17.8225 31.3746C16.7753 31.1253 15.6786 31.1817 14.6625 31.5371C13.7375 31.8696 13.0325 32.4221 12.4875 32.9321C12.1875 33.2071 11.815 33.5996 11.51 33.9221L11.1 34.3471C10.7891 34.6813 10.4291 34.9662 10.0325 35.1921C9.80583 35.3088 9.58667 35.4354 9.375 35.5721V30.5996C9.375 27.8911 9.90848 25.2091 10.945 22.7068C11.9815 20.2044 13.5007 17.9307 15.4159 16.0155C17.3311 14.1003 19.6048 12.5811 22.1072 11.5446C24.6095 10.5081 27.2915 9.97461 30 9.97461C32.7085 9.97461 35.3905 10.5081 37.8928 11.5446C40.3952 12.5811 42.6689 14.1003 44.5841 16.0155C46.4993 17.9307 48.0185 20.2044 49.055 22.7068C50.0915 25.2091 50.625 27.8911 50.625 30.5996V35.2596C50.2008 34.9866 49.7502 34.7571 49.28 34.5746C48.9424 34.4238 48.6356 34.2119 48.375 33.9496C48.2 33.7896 48.03 33.6196 47.825 33.4171L47.805 33.3971C47.5803 33.17 47.3493 32.9491 47.1125 32.7346C46.5144 32.1758 45.8082 31.7453 45.0375 31.4696C44.1158 31.1629 43.1092 31.1446 42.0175 31.4146C40.21 31.8646 38.8525 33.2946 38.345 35.0496C38.1225 35.8221 38.125 36.7196 38.125 37.7621V47.9946C38.125 48.7071 38.125 49.3146 38.15 49.8146C38.18 50.3346 38.2425 50.8596 38.4175 51.3821C38.9925 53.0896 40.3825 54.4396 42.1775 54.8246C43.335 55.0746 44.385 55.0071 45.3375 54.6621C46.2625 54.3296 46.9675 53.7771 47.5125 53.2671C47.8125 52.9921 48.185 52.5996 48.49 52.2796C48.6525 52.1071 48.7975 51.9546 48.9 51.8546C49.2106 51.5187 49.5705 51.232 49.9675 51.0046C52.7425 49.5721 54.355 46.6946 54.3625 43.6646V43.3071L54.375 43.0996V30.5996C54.375 24.135 51.8069 17.9351 47.2357 13.3639C42.6645 8.79268 36.4647 6.22461 30 6.22461Z" fill="#FF6E01"/>
</svg>
