<svg width="48" height="48" viewBox="0 0 48 48" fill="none" xmlns="http://www.w3.org/2000/svg">
<rect x="0.5" y="0.5" width="47" height="47" rx="23.5" fill="#313131"/>
<rect x="0.5" y="0.5" width="47" height="47" rx="23.5" stroke="#313131"/>
<path d="M34.5 24C34.5 18.201 29.799 13.5 24 13.5C18.201 13.5 13.5 18.201 13.5 24C13.5 29.799 18.201 34.5 24 34.5C29.799 34.5 34.5 29.799 34.5 24Z" fill="white"/>
<path d="M24 12C27.2604 12 27.6672 12.012 28.9464 12.072C29.9421 12.0926 30.9271 12.2812 31.86 12.63C32.6614 12.9301 33.3873 13.4024 33.9864 14.0136C34.5966 14.6135 35.0688 15.3391 35.37 16.14C35.7183 17.073 35.907 18.0579 35.928 19.0536C35.9844 20.3328 36 20.7336 36 24C36 27.2664 35.988 27.6672 35.928 28.9464C35.9068 29.9421 35.7181 30.927 35.37 31.86C35.0622 32.6575 34.5909 33.3819 33.9864 33.9864C33.3819 34.5909 32.6575 35.0622 31.86 35.37C30.927 35.7183 29.9421 35.907 28.9464 35.928C27.6672 35.9844 27.2664 36 24 36C20.7336 36 20.3328 35.988 19.0536 35.928C18.058 35.9068 17.073 35.7181 16.14 35.37C15.3424 35.0622 14.6181 34.5909 14.0136 33.9864C13.4091 33.3819 12.9378 32.6575 12.63 31.86C12.2811 30.9271 12.0924 29.9421 12.072 28.9464C12.0156 27.6672 12 27.2604 12 24C12 20.7396 12.012 20.3328 12.072 19.0536C12.0924 18.0579 12.2811 17.0728 12.63 16.14C12.9303 15.3386 13.4026 14.6128 14.0136 14.0136C14.6133 13.4032 15.339 12.931 16.14 12.63C17.0728 12.2811 18.0579 12.0924 19.0536 12.072C20.3328 12.0156 20.7396 12 24 12ZM24 18C22.8133 18 21.6533 18.3519 20.6666 19.0112C19.6799 19.6705 18.9108 20.6075 18.4567 21.7039C18.0026 22.8003 17.8838 24.0067 18.1153 25.1705C18.3468 26.3344 18.9182 27.4035 19.7574 28.2426C20.5965 29.0817 21.6656 29.6532 22.8295 29.8847C23.9933 30.1163 25.1997 29.9974 26.2961 29.5433C27.3924 29.0892 28.3296 28.3201 28.9888 27.3334C29.6481 26.3467 30 25.1867 30 24C30 22.4087 29.3679 20.8826 28.2426 19.7574C27.1174 18.6321 25.5913 18 24 18ZM31.8 17.7C31.8 17.4033 31.7121 17.1133 31.5472 16.8666C31.3824 16.62 31.1481 16.4277 30.8741 16.3142C30.6 16.2006 30.2983 16.1709 30.0074 16.2288C29.7164 16.2867 29.449 16.4296 29.2393 16.6393C29.0295 16.8491 28.8867 17.1164 28.8288 17.4074C28.7709 17.6983 28.8006 17.9999 28.9142 18.274C29.0277 18.5481 29.22 18.7824 29.4666 18.9472C29.7134 19.112 30.0033 19.2 30.3 19.2C30.6978 19.2 31.0794 19.042 31.3606 18.7607C31.6419 18.4794 31.8 18.0978 31.8 17.7ZM24 20.4C24.712 20.4 25.408 20.6111 26.0001 21.0067C26.5921 21.4023 27.0536 21.9645 27.326 22.6223C27.5985 23.2802 27.6698 24.004 27.5308 24.7023C27.3919 25.4007 27.049 26.0421 26.5456 26.5456C26.0421 27.049 25.4007 27.3919 24.7023 27.5308C24.004 27.6698 23.2802 27.5985 22.6223 27.326C21.9645 27.0536 21.4023 26.5921 21.0067 26.0001C20.6111 25.408 20.4 24.712 20.4 24C20.4 23.0452 20.7793 22.1295 21.4544 21.4544C22.1295 20.7793 23.0452 20.4 24 20.4Z" fill="url(#paint0_linear_105_659)"/>
<defs>
<linearGradient id="paint0_linear_105_659" x1="12" y1="12" x2="36" y2="36" gradientUnits="userSpaceOnUse">
<stop stop-color="#F9CE34"/>
<stop offset="0.515626" stop-color="#EE2A7B"/>
<stop offset="1" stop-color="#6228D7"/>
</linearGradient>
</defs>
</svg>
