<svg width="1440" height="286" viewBox="0 0 1440 286" fill="none" xmlns="http://www.w3.org/2000/svg">
<g clip-path="url(#clip0_254_551)">
<path d="M316.97 0.113281H369.186C373.543 0.113281 376.822 4.09216 375.99 8.37439L333.229 228.299H385.381C389.724 228.299 392.988 232.257 392.171 236.525L384.464 276.624C383.837 279.884 380.989 282.233 377.675 282.233H268.287C262.188 282.233 257.605 276.667 258.769 270.684L310.167 5.72886C310.801 2.46956 313.65 0.113281 316.97 0.113281Z" fill="#F9F5F2"/>
<path d="M450.45 132.877C444.534 132.877 440.304 126.986 442.363 121.434C459.284 75.7824 499.874 51.9727 553.598 51.9727C612.892 51.9727 640.671 82.6749 640.671 123.331C640.671 129.97 639.839 136.192 638.598 143.247L622.425 226.641C618.279 248.215 617.038 261.076 617.038 271.037C617.038 272.744 617.094 274.275 617.193 275.693C617.426 279.242 614.606 282.233 611.045 282.233H558.103C554.705 282.233 551.941 279.481 551.941 276.081C551.941 276.053 551.941 276.032 551.941 276.003C551.941 271.439 552.357 265.633 553.189 258.994C531.629 279.735 505.507 288.864 481.458 288.864C442.483 288.864 413.872 268.54 413.872 229.534C413.872 198.831 434.191 172.277 472.334 159.417C506.339 148.214 529.556 146.14 574.749 145.723L575.574 140.743C576.406 136.594 576.822 132.862 576.822 129.123C576.822 112.114 566.458 103.402 544.898 103.402C525.121 103.402 511.387 113.144 504.301 127.797C502.835 130.838 499.852 132.855 496.482 132.855H450.457L450.45 132.877ZM505.084 244.892C533.695 244.892 559.817 222.07 565.619 191.375L567.276 182.662C498.858 183.911 479.371 200.503 479.371 222.909C479.371 237.844 488.91 244.899 505.077 244.899L505.084 244.892Z" fill="#F9F5F2"/>
<path d="M694.473 59.0274H740.795C746.076 59.0274 750.052 63.8317 749.072 69.024L746.809 81.0171C764.639 61.5177 787.025 51.9727 812.322 51.9727C850.881 51.9727 877.003 74.7948 877.003 117.525C877.003 125.406 876.178 133.709 874.514 142.831L848.434 275.686C847.687 279.488 844.359 282.233 840.481 282.233H793.546C788.449 282.233 784.62 277.577 785.593 272.575L810.249 146.154C811.49 140.757 811.906 135.783 811.906 131.635C811.906 112.968 802.782 103.423 783.711 103.423C760.078 103.423 741.006 122.506 733.956 148.228L709.11 275.679C708.37 279.488 705.035 282.233 701.157 282.233H654.208C649.118 282.233 645.289 277.591 646.255 272.589L686.196 65.8564C686.965 61.8917 690.433 59.0274 694.466 59.0274H694.473Z" fill="#F9F5F2"/>
<path d="M1048.89 139.515C1044.7 139.515 1041.28 136.312 1040.82 132.15C1038.64 112.093 1027.16 103.416 1009.69 103.416C975.272 103.416 952.464 149.886 952.464 195.932C952.464 222.486 964.492 237.421 986.468 237.421C1003.69 237.421 1018.8 228.581 1027.54 210.571C1028.92 207.742 1031.73 205.886 1034.88 205.886H1081.08C1086.92 205.886 1090.9 211.911 1088.51 217.244C1067.03 265.217 1024.09 288.864 979.002 288.864C922.196 288.864 886.951 254.846 886.951 196.348C886.951 122.083 938.363 51.9727 1015.07 51.9727C1067.63 51.9727 1100.16 80.5585 1103.87 130.711C1104.22 135.445 1100.53 139.508 1095.79 139.508H1048.88L1048.89 139.515Z" fill="#F9F5F2"/>
<path d="M1147.82 59.0274H1194.69C1199.8 59.0274 1203.64 63.7047 1202.64 68.7207L1200.01 81.8425C1217.84 61.9269 1238.99 51.9727 1260.96 51.9727C1269.4 51.9727 1275.69 53.045 1280.08 55.0697C1283.42 56.6147 1285.16 60.3467 1284.43 63.9516L1276.23 104.707C1275.38 108.919 1271.41 111.733 1267.15 111.127C1262.18 110.414 1256.72 110.054 1250.18 110.054C1210.38 110.054 1190.47 129.554 1183.84 166.895L1162.72 275.672C1161.98 279.481 1158.65 282.233 1154.77 282.233H1107.83C1102.74 282.233 1098.91 277.591 1099.87 272.589L1139.86 65.5954C1140.6 61.7788 1143.94 59.0274 1147.82 59.0274Z" fill="#F9F5F2"/>
<path d="M1304.54 59.0274H1351.41C1356.53 59.0274 1360.36 63.7047 1359.36 68.7207L1356.74 81.8425C1374.57 61.9269 1395.71 51.9727 1417.69 51.9727C1426.12 51.9727 1432.42 53.045 1436.8 55.0697C1440.14 56.6147 1441.89 60.3467 1441.16 63.9516L1432.95 104.707C1432.11 108.919 1428.13 111.733 1423.88 111.127C1418.9 110.414 1413.44 110.054 1406.91 110.054C1367.1 110.054 1347.2 129.554 1340.56 166.895L1319.45 275.672C1318.71 279.481 1315.37 282.233 1311.49 282.233H1264.55C1259.46 282.233 1255.63 277.591 1256.6 272.589L1296.59 65.5954C1297.32 61.7788 1300.66 59.0274 1304.54 59.0274Z" fill="#F9F5F2"/>
<path d="M249.85 53.3782C242.926 89.0612 236.003 124.737 229.086 160.42C228.973 161.013 228.395 161.386 227.817 161.252C188.476 152.053 143.226 138.628 94.5141 118.684C54.7354 102.395 19.7863 84.6942 -10.2134 67.4736C-12.5048 66.1614 -13.0195 63.0855 -11.3062 61.0749C-5.94081 54.7609 -0.582452 48.454 4.78295 42.14C5.36109 41.4557 6.20009 41.0535 7.0955 41.0253C82.472 38.6267 157.855 36.2351 233.232 33.8365C243.758 33.505 251.866 43.0359 249.864 53.3782H249.85Z" fill="#FF6E01"/>
<path d="M227.331 169.43C220.739 203.427 214.139 237.431 207.54 271.427C207.293 272.719 206.518 273.833 205.39 274.51C201.251 277.015 195.935 280.232 192.198 282.489C189.632 284.041 185.944 286.264 182.652 288.26C180.396 289.622 177.449 288.62 176.525 286.144C169.841 268.253 163.305 249.106 157.143 228.753C151.334 209.557 146.413 191.074 142.218 173.444C141.752 171.476 143.233 169.592 145.256 169.557C172.26 169.098 199.263 168.633 226.266 168.174C226.936 168.16 227.451 168.774 227.324 169.43H227.331Z" fill="#F4B784"/>
</g>
<defs>
<clipPath id="clip0_254_551">
<rect width="1451" height="289" fill="white" transform="translate(-11)"/>
</clipPath>
</defs>
</svg>
