<svg width="67" height="61" viewBox="0 0 67 61" fill="none" xmlns="http://www.w3.org/2000/svg">
<path d="M7.44444 8.09961C3.33837 8.09961 0 11.4629 0 15.5996V45.5996C0 49.7363 3.33837 53.0996 7.44444 53.0996H59.5556C63.6616 53.0996 67 49.7363 67 45.5996V15.5996C67 11.4629 63.6616 8.09961 59.5556 8.09961H7.44444ZM31.6389 23.0996H57.6944C58.7181 23.0996 59.5556 23.9434 59.5556 24.9746C59.5556 26.0059 58.7181 26.8496 57.6944 26.8496H31.6389C30.6153 26.8496 29.7778 26.0059 29.7778 24.9746C29.7778 23.9434 30.6153 23.0996 31.6389 23.0996ZM29.7778 36.2246C29.7778 35.1934 30.6153 34.3496 31.6389 34.3496H57.6944C58.7181 34.3496 59.5556 35.1934 59.5556 36.2246C59.5556 37.2559 58.7181 38.0996 57.6944 38.0996H31.6389C30.6153 38.0996 29.7778 37.2559 29.7778 36.2246ZM19.0764 18.4121V20.041C19.9488 20.1816 20.7747 20.3809 21.5307 20.5918C22.7753 20.9199 23.5082 22.209 23.1825 23.4629C22.8568 24.7168 21.5773 25.4551 20.3326 25.127C19.0531 24.7871 17.8201 24.541 16.7035 24.5176C15.7845 24.5059 14.8424 24.7285 14.2026 25.1035C13.6443 25.4316 13.4814 25.7598 13.4814 26.1934C13.4814 26.4043 13.4931 26.6035 14.0979 26.9785C14.8307 27.4238 15.9009 27.7637 17.3898 28.209L17.4712 28.2324C18.774 28.6309 20.449 29.1348 21.7866 29.9902C23.2872 30.9395 24.6132 32.4863 24.6481 34.8652C24.683 37.3145 23.4267 39.0957 21.7634 40.1387C20.9259 40.666 19.9953 40.9941 19.0648 41.1934V42.8105C19.0648 44.0996 18.0179 45.1543 16.7384 45.1543C15.4589 45.1543 14.412 44.0996 14.412 42.8105V41.0996C13.2139 40.8418 12.0856 40.4551 11.1318 40.1152C10.8875 40.0332 10.6549 39.9512 10.4222 39.8691C9.20087 39.459 8.54948 38.1348 8.9566 36.9043C9.36372 35.6738 10.6781 35.0176 11.8995 35.4277C12.1903 35.5215 12.4694 35.627 12.737 35.709C14.3189 36.248 15.5286 36.6582 16.8198 36.7051C17.8201 36.7402 18.7391 36.5176 19.309 36.1543C19.7859 35.8613 20.0069 35.5098 19.9953 34.9238C19.9953 34.584 19.9023 34.3379 19.309 33.9629C18.5762 33.4941 17.5177 33.1543 16.0521 32.709L15.8543 32.6504C14.5865 32.2637 12.9929 31.7832 11.7134 31.0098C10.2361 30.1074 8.85191 28.6074 8.84028 26.2402C8.82865 23.7676 10.2128 22.0566 11.8413 21.0957C12.6439 20.6152 13.528 20.2988 14.4236 20.0996V18.459C14.4236 17.1699 15.4705 16.1152 16.75 16.1152C18.0295 16.1152 19.0764 17.1699 19.0764 18.459V18.4121Z" fill="#FF6E01"/>
</svg>
