<svg width="48" height="48" viewBox="0 0 48 48" fill="none" xmlns="http://www.w3.org/2000/svg">
<rect x="0.5" y="0.5" width="47" height="47" rx="23.5" fill="#313131"/>
<rect x="0.5" y="0.5" width="47" height="47" rx="23.5" stroke="#313131"/>
<path d="M35.1518 17.1808C34.3169 17.5502 33.4314 17.793 32.5249 17.901C33.4802 17.3283 34.195 16.4283 34.5366 15.3682C33.6382 15.9019 32.655 16.2776 31.6296 16.4792C30.9406 15.7421 30.0275 15.2533 29.0322 15.0887C28.0367 14.9241 27.0149 15.093 26.1254 15.569C25.2358 16.0451 24.5286 16.8018 24.1134 17.7213C23.6982 18.6408 23.5986 19.6718 23.8298 20.6538C22.01 20.5623 20.2299 20.0892 18.6048 19.2651C16.9797 18.4411 15.5461 17.2846 14.3969 15.8706C13.8118 16.8786 13.6326 18.0715 13.8957 19.2069C14.1588 20.3423 14.8445 21.3348 15.8133 21.9826C15.0865 21.9597 14.3757 21.7635 13.7402 21.4102V21.4671C13.7407 22.5239 14.1065 23.548 14.7758 24.366C15.4451 25.1838 16.3766 25.7451 17.4124 25.9548C16.7377 26.1376 16.0303 26.1646 15.3437 26.0336C15.6367 26.9424 16.2065 27.7368 16.9732 28.306C17.74 28.8751 18.6654 29.1904 19.6201 29.2078C18.6706 29.9535 17.5834 30.5048 16.4206 30.8301C15.2579 31.1554 14.0424 31.2483 12.8438 31.1035C14.9362 32.4492 17.372 33.1636 19.8598 33.1613C21.5736 33.173 23.2726 32.8442 24.8583 32.1938C26.4438 31.5434 27.8844 30.5844 29.0963 29.3725C30.3081 28.1607 31.2671 26.7202 31.9175 25.1345C32.5679 23.5489 32.8968 21.8499 32.885 20.1361C32.885 19.9391 32.885 19.7399 32.8708 19.5451C33.767 18.8972 34.5405 18.0947 35.1551 17.1753L35.1518 17.1808Z" fill="#1DA1F2"/>
</svg>
