<svg width="40" height="41" viewBox="0 0 40 41" fill="none" xmlns="http://www.w3.org/2000/svg">
<g id="Component 1">
<path id="Vector" d="M8.29062 17.77L2.26312 13.1113C2.0929 13.5547 2.00377 14.0251 2 14.5C1.99815 15.2321 2.19773 15.9505 2.57689 16.5767C2.95604 17.2029 3.50016 17.7127 4.14969 18.0503C4.79921 18.388 5.52911 18.5404 6.25947 18.491C6.98984 18.4415 7.69253 18.1921 8.29062 17.77ZM10.8181 21.6625C10.0698 20.917 9.05628 20.4989 8 20.5H4C2.93944 20.501 1.9226 20.9228 1.17267 21.6727C0.422739 22.4226 0.000992881 23.4395 0 24.5V26.5C0 27.0305 0.210714 27.5392 0.585786 27.9142C0.960859 28.2893 1.46957 28.5 2 28.5H6.11938C6.30957 27.0711 6.83421 25.7071 7.65065 24.5191C8.4671 23.331 9.55231 22.3523 10.8181 21.6625ZM34 18.5C34.7911 18.5 35.5645 18.2654 36.2223 17.8259C36.8801 17.3864 37.3928 16.7617 37.6955 16.0308C37.9983 15.2999 38.0775 14.4956 37.9231 13.7197C37.7688 12.9437 37.3878 12.231 36.8284 11.6716C36.269 11.1122 35.5563 10.7312 34.7804 10.5769C34.0044 10.4225 33.2002 10.5018 32.4693 10.8045C31.7384 11.1073 31.1136 11.6199 30.6741 12.2777C30.2346 12.9355 30 13.7089 30 14.5C30.001 15.5606 30.4227 16.5774 31.1727 17.3274C31.9226 18.0773 32.9394 18.499 34 18.5ZM31.285 26.6944C30.8038 25.6358 30.0713 24.7108 29.1512 23.9998C28.2311 23.2887 27.1513 22.8132 26.0056 22.6144L22.5625 19.9519C25.1537 18.9332 27 16.4569 27 13.5C27.0006 12.5806 26.8199 11.6701 26.4683 10.8206C26.1167 9.97102 25.6012 9.19912 24.951 8.549C24.3009 7.89887 23.529 7.38328 22.6795 7.0317C21.8299 6.68012 20.9194 6.49945 20 6.50003C16.4287 6.50003 13.5194 9.1769 13.0875 12.63L2.84125 4.71128C2.73756 4.63059 2.619 4.57113 2.49232 4.53629C2.36565 4.50145 2.23335 4.49191 2.10298 4.50822C1.97262 4.52453 1.84675 4.56637 1.73256 4.63135C1.61838 4.69632 1.51811 4.78316 1.4375 4.8869L0.210625 6.46628C0.047874 6.67564 -0.0250536 6.94108 0.00788149 7.20421C0.0408166 7.46734 0.176917 7.70661 0.38625 7.8694L37.1581 36.2894C37.2618 36.3702 37.3804 36.4297 37.5072 36.4646C37.6339 36.4995 37.7663 36.5091 37.8967 36.4928C38.0272 36.4765 38.1531 36.4346 38.2673 36.3696C38.3816 36.3045 38.4819 36.2176 38.5625 36.1138L39.79 34.5344C39.9528 34.325 40.0257 34.0596 39.9927 33.7965C39.9598 33.5333 39.8237 33.2941 39.6144 33.1313L31.285 26.6944ZM8 29.7007V31.5C8 32.2957 8.31607 33.0587 8.87868 33.6213C9.44129 34.184 10.2044 34.5 11 34.5H29C29.2659 34.4965 29.5302 34.4572 29.7856 34.3832L14.5 22.5707C10.8588 22.9269 8 25.9638 8 29.7007ZM36 20.5H32C30.9437 20.4989 29.9302 20.917 29.1819 21.6625C30.4477 22.3517 31.5326 23.3303 32.3483 24.5186C33.1639 25.7068 33.687 27.0711 33.875 28.5H38C38.5304 28.5 39.0391 28.2893 39.4142 27.9142C39.7893 27.5392 40 27.0305 40 26.5V24.5C39.999 23.4395 39.5773 22.4226 38.8273 21.6727C38.0774 20.9228 37.0606 20.501 36 20.5Z" fill="black"/>
</g>
</svg>
