<svg width="41" height="41" viewBox="0 0 41 41" fill="none" xmlns="http://www.w3.org/2000/svg">
<g id="Component 1">
<path id="Vector" d="M27.9 8C27.9 3.85781 24.5422 0.5 20.4 0.5C16.2578 0.5 12.9 3.85781 12.9 8C12.9 12.1422 16.2578 15.5 20.4 15.5C24.5422 15.5 27.9 12.1422 27.9 8ZM18.6492 19.3359C14.0141 16.4984 6.50627 15.7188 2.72815 15.5039C1.45862 15.432 0.400024 16.3992 0.400024 17.6203V35.0266C0.400024 36.1461 1.30549 37.0797 2.46956 37.1398C5.88049 37.3187 12.7813 37.9742 17.5508 40.3766C18.2828 40.7453 19.1508 40.243 19.1508 39.4492V20.2313C19.15 19.8664 18.9696 19.532 18.6492 19.3359ZM38.0719 15.5039C34.2946 15.718 26.786 16.4984 22.1516 19.3359C21.8313 19.532 21.6508 19.8797 21.6508 20.2445V39.4469C21.6508 40.243 22.5211 40.7461 23.2555 40.3766C28.0242 37.9766 34.9211 37.3211 38.3313 37.1422C39.4953 37.0812 40.4008 36.1477 40.4008 35.0281V17.6203C40.4 16.3992 39.3414 15.432 38.0719 15.5039Z" fill="black"/>
</g>
</svg>
