<svg width="41" height="41" viewBox="0 0 41 41" fill="none" xmlns="http://www.w3.org/2000/svg">
<g id="Component 1">
<path id="Vector" d="M18.2422 19.625C18.5156 18.6484 18.7812 17 19.2734 17C19.9219 17.1406 20.0234 18.8281 20.7266 19.8594C21.0859 18.0234 21.1406 13.2109 21.8281 13.0859C22.5312 13.0312 23.3672 18.2812 23.5469 19.1406C24.3203 19.4609 27.3672 19.6562 27.3672 19.6562C27.5156 20.2266 25.4922 20.25 24.2422 20.2656C23.8828 21.4219 23.8203 22.4297 23.3516 22.4531C22.9844 22.4688 22.7109 20.2031 21.9844 18.5781L21.25 23.6953C20.9062 24.7109 20.0391 21.9375 19.5391 20.625C19.2812 20.6172 14.6641 20.5 15.8203 20.0156L18.2422 19.625ZM26.8125 36C28.4688 36 28.4688 33.5 26.8125 33.5H16.1875C14.5312 33.5 14.5312 36 16.1875 36H26.8125ZM24.9375 41C26.5938 41 26.5938 38.5 24.9375 38.5H18.0625C16.4062 38.5 16.4062 41 18.0625 41H24.9375ZM27.6094 29.9453C27.8594 28.4688 28.0156 27.1016 28.5391 26.1328C29.1562 24.9844 29.7969 23.9375 30.4141 22.9297C32.3359 19.7734 34 17.0547 34 13.125C34 6.4375 28.3906 1 21.5 1C14.6094 1 9 6.4375 9 13.125C9 17.0469 10.6641 19.7734 12.5859 22.9297C13.2031 23.9375 13.8359 24.9844 14.4609 26.1328C14.9844 27.1094 15.1406 28.4609 15.3906 29.9531C15.6641 31.5938 18.2109 31.1797 17.9375 29.5547C17.6562 27.8594 17.5 26.375 16.7422 24.9766C14.1953 20.2578 11.5781 17.5078 11.5781 13.125C11.5781 7.82031 16.0312 3.5 21.5 3.5C26.9688 3.5 31.4219 7.82031 31.4219 13.125C31.4219 17.5078 28.8047 20.2578 26.2578 24.9688C25.5 26.375 25.3438 27.8906 25.0625 29.5469C24.7969 31.1562 27.3281 31.6094 27.6094 29.9453Z" fill="black"/>
</g>
</svg>
